<?xml version="1.0" encoding="UTF-8" standalone="no"?>
<svg
   version="1.1"
   width="595.27557pt"
   height="841.88977pt"
   id="svg8"
   viewBox="0 0 595.27557 841.88977"
   sodipodi:docname="dbdd_logo[1].cdr"
   xmlns:inkscape="http://www.inkscape.org/namespaces/inkscape"
   xmlns:sodipodi="http://sodipodi.sourceforge.net/DTD/sodipodi-0.dtd"
   xmlns="http://www.w3.org/2000/svg"
   xmlns:svg="http://www.w3.org/2000/svg">
  <defs
     id="defs8" />
  <sodipodi:namedview
     id="namedview8"
     pagecolor="#ffffff"
     bordercolor="#000000"
     borderopacity="0.25"
     inkscape:showpageshadow="2"
     inkscape:pageopacity="0.0"
     inkscape:pagecheckerboard="0"
     inkscape:deskcolor="#d1d1d1"
     inkscape:document-units="pt" />
  <path
     d="m 255.6294,253.9546 c 2.5299,3.7099 5.4105,6.5251 8.6418,8.4237 3.2313,1.8986 6.7131,2.8372 10.4201,2.8372 6.2871,0 11.4221,-2.6406 15.4551,-7.9002 4.0328,-5.2593 6.0616,-12.0463 6.0616,-20.361 0,-6.7653 -1.8284,-12.3084 -5.4606,-16.6075 -3.6571,-4.2992 -8.291,-6.4597 -13.927,-6.4597 -3.6068,0 -7.1138,0.9383 -10.4451,2.8371 -3.3566,1.8986 -6.8131,4.8448 -10.3201,8.8602 z m -10.6221,-29.1648 c -1.7872,-3.1322 -4.1453,-5.5813 -7.0737,-7.3674 -3.0061,-1.833 -6.2371,-2.7496 -9.6437,-2.7496 -6.4124,0 -11.823,2.5096 -16.2065,7.507 -4.4085,5.0194 -6.6127,11.3265 -6.6127,18.9209 0,7.638 1.7534,13.574 5.2852,17.8513 3.5066,4.2557 8.3913,6.3942 14.6032,6.3942 3.9075,0 7.4395,-0.9383 10.6206,-2.815 3.0076,-1.7744 5.8138,-4.5052 8.4397,-8.1914 z m 1.0037,-50.4465 h 11.1213 l -0.9269,41.7699 c 2.9308,-3.5792 6.2374,-6.2416 9.9444,-7.9875 3.6821,-1.7457 7.8903,-2.6187 12.5743,-2.6187 9.1677,0 16.4318,3.0115 21.8422,9.0565 5.4107,6.0233 8.1158,14.1853 8.1158,24.5077 0,4.7355 -0.8015,9.144 -2.3796,13.2467 -1.603,4.0808 -3.9578,7.7909 -7.0889,11.108 -3.131,3.339 -6.6128,5.8704 -10.4449,7.6381 -3.8577,1.7676 -7.8653,2.6625 -12.0735,2.6625 -4.659,0 -8.792,-0.8512 -12.3738,-2.5316 -3.607,-1.6804 -6.5879,-4.19 -8.9925,-7.5071 l -0.1504,8.8602 h -9.5599 -0.3209 -1.2406 l 0.1584,-7.9598 c -2.4338,2.9407 -5.3012,5.1983 -8.5865,6.7596 -3.8825,1.8549 -8.341,2.7715 -13.4258,2.7715 -8.216,0 -15.1543,-3.1207 -20.7652,-9.3403 -5.6359,-6.2198 -8.4413,-13.9234 -8.4413,-23.1328 0,-9.9295 3.1059,-18.3532 9.293,-25.2494 6.1869,-6.918 13.6012,-10.366 22.2429,-10.366 3.9326,0 7.5396,0.6764 10.8209,2.0076 3.2782,1.3417 6.5565,3.4772 9.8593,6.4275 z"
     style="fill:#102a83;fill-rule:evenodd"
     id="path1" />
  <text
     x="187.03081"
     y="336.93961"
     id="text1"><tspan
       font-family="'dearJoe 5 CASUAL'"
       font-size="28px"
       fill="#1b1918"
       id="tspan1">&amp; Digital Concept</tspan></text>
  <text
     x="253.02901"
     y="296.6604"
     id="text2"><tspan
       font-family="Arial"
       font-size="27.5px"
       fill="#1b1918"
       id="tspan2">creation</tspan></text>
  <path
     d="m 353.2619,225.4776 c -1.8032,-3.2517 -4.2081,-5.7831 -7.2139,-7.6163 -3.0058,-1.833 -6.2371,-2.7497 -9.6437,-2.7497 -6.4123,0 -11.8228,2.5097 -16.2063,7.5071 -4.4085,5.0194 -6.6126,11.3265 -6.6126,18.9209 0,7.638 1.7532,13.574 5.285,17.8513 3.5068,4.2557 8.3912,6.3942 14.6033,6.3942 3.9076,0 7.4394,-0.9383 10.6207,-2.815 3.181,-1.8769 6.1366,-4.823 8.8922,-8.8385 z m -5.4932,-49.7149 h 10.8801 v 41.3487 h -5.0768 v 55.8755 h -0.1599 l 0.1505,-9.5586 c -2.6803,3.7319 -5.9617,6.5251 -9.819,8.3584 -3.8827,1.8549 -8.3412,2.7715 -13.4259,2.7715 -8.216,0 -15.1544,-3.1207 -20.7651,-9.3403 -5.6361,-6.2198 -8.4415,-13.9234 -8.4415,-23.1328 0,-9.9295 3.1059,-18.3532 9.293,-25.2494 6.1869,-6.918 13.6014,-10.366 22.2432,-10.366 3.9323,0 7.5395,0.6764 10.8209,2.0076 1.4329,0.5863 2.8656,1.3246 4.3005,2.216 z"
     style="fill:#009ee0;fill-rule:evenodd"
     id="path2" />
  <path
     d="m 396.8559,225.4776 c -1.8031,-3.2517 -4.208,-5.7831 -7.2138,-7.6163 -3.0058,-1.833 -6.2371,-2.7497 -9.6437,-2.7497 -6.4124,0 -11.8228,2.5097 -16.2063,7.5071 -4.4085,5.0194 -6.6126,11.3265 -6.6126,18.9209 0,7.638 1.7532,13.574 5.285,17.8513 3.5067,4.2557 8.3912,6.3942 14.6033,6.3942 3.9076,0 7.4394,-0.9383 10.6206,-2.815 3.1811,-1.8769 6.1367,-4.823 8.8923,-8.8385 z m 0.902,-50.6954 h 12.1735 l -1.9539,98.2047 h -10.9713 l 0.1505,-9.5586 c -2.6804,3.7319 -5.9617,6.5251 -9.819,8.3584 -3.8827,1.8549 -8.3412,2.7715 -13.4259,2.7715 -8.216,0 -15.1544,-3.1207 -20.7651,-9.3403 -5.6361,-6.2198 -8.4415,-13.9234 -8.4415,-23.1328 0,-9.9295 3.1059,-18.3532 9.293,-25.2494 6.1869,-6.918 13.6014,-10.366 22.2432,-10.366 3.9323,0 7.5395,0.6764 10.8208,2.0076 3.3064,1.3531 6.6127,3.5136 9.944,6.5034 z"
     style="fill:#f07c00;fill-rule:evenodd"
     id="path3" />
  <path
     d="m 133.5149,117.7396 v 251.8656 h 340.511 V 117.7396 Z"
     style="fill:none;stroke:#1b1918;stroke-width:0.5669;stroke-linecap:butt;stroke-linejoin:miter;stroke-dasharray:none"
     id="path4" />
  <g
     id="Layer1000">
    <path
       d="M 134.4237,396.3551 V 648.2206 H 474.9346 V 396.3551 Z"
       style="fill:#1b1918;fill-rule:evenodd;stroke:#1b1918;stroke-width:0.5669;stroke-linecap:butt;stroke-linejoin:miter;stroke-dasharray:none"
       id="path5" />
    <path
       d="m 256.5381,532.5701 c 2.5299,3.7099 5.4105,6.5251 8.6418,8.4237 3.2313,1.8986 6.7131,2.8372 10.4201,2.8372 6.2872,0 11.4221,-2.6406 15.4551,-7.9002 4.0328,-5.2593 6.0617,-12.0463 6.0617,-20.361 0,-6.7653 -1.8285,-12.3084 -5.4607,-16.6075 -3.657,-4.2993 -8.291,-6.4597 -13.9269,-6.4597 -3.6069,0 -7.1139,0.9383 -10.4452,2.8371 -3.3565,1.8986 -6.8131,4.8448 -10.3201,8.8602 z M 245.916,503.4052 c -1.7872,-3.1321 -4.1453,-5.5813 -7.0737,-7.3673 -3.006,-1.8331 -6.2371,-2.7497 -9.6437,-2.7497 -6.4123,0 -11.823,2.5097 -16.2065,7.5071 -4.4085,5.0194 -6.6126,11.3265 -6.6126,18.9209 0,7.638 1.7534,13.574 5.2852,17.8513 3.5065,4.2556 8.3912,6.3942 14.6031,6.3942 3.9075,0 7.4396,-0.9383 10.6206,-2.815 3.0076,-1.7744 5.8138,-4.5052 8.4398,-8.1914 z m 1.0037,-50.4464 h 11.1214 l -0.927,41.7698 c 2.9308,-3.5791 6.2374,-6.2415 9.9444,-7.9874 3.6821,-1.7457 7.8903,-2.6187 12.5743,-2.6187 9.1677,0 16.4318,3.0115 21.8422,9.0565 5.4107,6.0233 8.1158,14.1853 8.1158,24.5076 0,4.7356 -0.8015,9.1441 -2.3796,13.2468 -1.6029,4.0808 -3.9578,7.7909 -7.0888,11.108 -3.1311,3.339 -6.6129,5.8704 -10.445,7.638 -3.8577,1.7677 -7.8652,2.6626 -12.0735,2.6626 -4.659,0 -8.792,-0.8513 -12.3738,-2.5316 -3.607,-1.6804 -6.5878,-4.1901 -8.9924,-7.5071 l -0.1505,8.8602 h -9.5599 -0.3209 -1.2406 l 0.1584,-7.9598 c -2.4338,2.9406 -5.3012,5.1983 -8.5865,6.7596 -3.8825,1.8549 -8.341,2.7715 -13.4257,2.7715 -8.216,0 -15.1544,-3.1207 -20.7653,-9.3403 -5.6359,-6.2198 -8.4413,-13.9234 -8.4413,-23.1328 0,-9.9295 3.1059,-18.3532 9.293,-25.2495 6.1869,-6.9179 13.6012,-10.3659 22.243,-10.3659 3.9325,0 7.5395,0.6764 10.8208,2.0076 3.2783,1.3417 6.5565,3.4772 9.8593,6.4275 z"
       style="fill:#ffffff;fill-rule:evenodd"
       id="path6" />
    <text
       x="187.93961"
       y="615.55487"
       id="text6"><tspan
         font-family="'dearJoe 5 CASUAL'"
         font-size="28px"
         fill="#ffffff"
         id="tspan6">&amp; Digital Concept</tspan></text>
    <text
       x="253.93781"
       y="575.276"
       id="text7"><tspan
         font-family="Arial"
         font-size="27.5px"
         fill="#ffffff"
         id="tspan7">creation</tspan></text>
    <path
       d="m 354.1706,504.0931 c -1.8032,-3.2517 -4.208,-5.7831 -7.2139,-7.6163 -3.0058,-1.8331 -6.2371,-2.7497 -9.6436,-2.7497 -6.4124,0 -11.8229,2.5097 -16.2063,7.5071 -4.4085,5.0194 -6.6127,11.3265 -6.6127,18.9209 0,7.638 1.7532,13.574 5.285,17.8513 3.5068,4.2556 8.3912,6.3942 14.6034,6.3942 3.9075,0 7.4393,-0.9383 10.6206,-2.815 3.1811,-1.8769 6.1367,-4.823 8.8922,-8.8385 z m -5.4931,-49.715 h 10.8801 v 41.3487 h -5.0769 v 55.8756 h -0.1599 l 0.1505,-9.5586 c -2.6803,3.7318 -5.9616,6.5251 -9.8189,8.3584 -3.8828,1.8549 -8.3413,2.7715 -13.426,2.7715 -8.216,0 -15.1544,-3.1207 -20.7651,-9.3403 -5.6361,-6.2198 -8.4414,-13.9234 -8.4414,-23.1328 0,-9.9295 3.1058,-18.3532 9.2929,-25.2495 6.1869,-6.9179 13.6015,-10.3659 22.2432,-10.3659 3.9323,0 7.5396,0.6764 10.8209,2.0076 1.4329,0.5863 2.8656,1.3246 4.3006,2.216 z"
       style="fill:#ffffff;fill-rule:evenodd"
       id="path7" />
    <path
       d="m 397.7647,504.0931 c -1.8032,-3.2517 -4.2081,-5.7831 -7.2139,-7.6163 -3.0058,-1.8331 -6.2371,-2.7497 -9.6437,-2.7497 -6.4123,0 -11.8228,2.5097 -16.2063,7.5071 -4.4085,5.0194 -6.6126,11.3265 -6.6126,18.9209 0,7.638 1.7532,13.574 5.285,17.8513 3.5068,4.2556 8.3912,6.3942 14.6034,6.3942 3.9075,0 7.4393,-0.9383 10.6206,-2.815 3.181,-1.8769 6.1366,-4.823 8.8922,-8.8385 z m 0.9019,-50.6954 h 12.1735 l -1.9538,98.2047 h -10.9714 l 0.1505,-9.5586 c -2.6803,3.7318 -5.9617,6.5251 -9.819,8.3584 -3.8827,1.8549 -8.3412,2.7715 -13.4259,2.7715 -8.216,0 -15.1544,-3.1207 -20.7651,-9.3403 -5.6361,-6.2198 -8.4415,-13.9234 -8.4415,-23.1328 0,-9.9295 3.1059,-18.3532 9.293,-25.2495 6.1869,-6.9179 13.6014,-10.3659 22.2432,-10.3659 3.9323,0 7.5395,0.6764 10.8209,2.0076 3.3063,1.3531 6.6126,3.5136 9.9439,6.5034 z"
       style="fill:#ffffff;fill-rule:evenodd"
       id="path8" />
  </g>
</svg>
